<mxfile host="app.diagrams.net" agent="Mozilla/5.0 (Windows NT 10.0; Win64; x64) AppleWebKit/537.36 (KHTML, like Gecko) Chrome/131.0.0.0 Safari/537.36" version="26.0.1">
  <diagram name="第 1 页" id="EA-4ABA8h-LSAHxLOsku">
    <mxGraphModel dx="1588" dy="892" grid="1" gridSize="10" guides="1" tooltips="1" connect="1" arrows="1" fold="1" page="0" pageScale="1" pageWidth="827" pageHeight="1169" math="0" shadow="0">
      <root>
        <mxCell id="0" />
        <mxCell id="1" parent="0" />
        <mxCell id="rXJdtnzMvX7g7QMT9Zs_-4" value="" style="edgeStyle=orthogonalEdgeStyle;rounded=0;orthogonalLoop=1;jettySize=auto;html=1;" edge="1" parent="1" source="rXJdtnzMvX7g7QMT9Zs_-1" target="rXJdtnzMvX7g7QMT9Zs_-2">
          <mxGeometry relative="1" as="geometry" />
        </mxCell>
        <mxCell id="rXJdtnzMvX7g7QMT9Zs_-1" value="Start" style="strokeWidth=2;html=1;shape=mxgraph.flowchart.start_1;whiteSpace=wrap;fillColor=#dae8fc;strokeColor=#6c8ebf;" vertex="1" parent="1">
          <mxGeometry x="370" y="210" width="100" height="60" as="geometry" />
        </mxCell>
        <mxCell id="rXJdtnzMvX7g7QMT9Zs_-6" value="" style="edgeStyle=orthogonalEdgeStyle;rounded=0;orthogonalLoop=1;jettySize=auto;html=1;" edge="1" parent="1" source="rXJdtnzMvX7g7QMT9Zs_-2" target="rXJdtnzMvX7g7QMT9Zs_-5">
          <mxGeometry relative="1" as="geometry" />
        </mxCell>
        <mxCell id="rXJdtnzMvX7g7QMT9Zs_-2" value="Select a type of item" style="rounded=1;whiteSpace=wrap;html=1;absoluteArcSize=1;arcSize=14;strokeWidth=2;fillColor=#f8cecc;strokeColor=#b85450;" vertex="1" parent="1">
          <mxGeometry x="360" y="370" width="120" height="60" as="geometry" />
        </mxCell>
        <mxCell id="rXJdtnzMvX7g7QMT9Zs_-22" value="" style="edgeStyle=orthogonalEdgeStyle;rounded=0;orthogonalLoop=1;jettySize=auto;html=1;" edge="1" parent="1" source="rXJdtnzMvX7g7QMT9Zs_-3" target="rXJdtnzMvX7g7QMT9Zs_-21">
          <mxGeometry relative="1" as="geometry" />
        </mxCell>
        <mxCell id="rXJdtnzMvX7g7QMT9Zs_-3" value="Purchase an item" style="rounded=1;whiteSpace=wrap;html=1;absoluteArcSize=1;arcSize=14;strokeWidth=2;fillColor=#f8cecc;strokeColor=#b85450;" vertex="1" parent="1">
          <mxGeometry x="360" y="690" width="120" height="60" as="geometry" />
        </mxCell>
        <mxCell id="rXJdtnzMvX7g7QMT9Zs_-7" value="" style="edgeStyle=orthogonalEdgeStyle;rounded=0;orthogonalLoop=1;jettySize=auto;html=1;" edge="1" parent="1" source="rXJdtnzMvX7g7QMT9Zs_-5" target="rXJdtnzMvX7g7QMT9Zs_-3">
          <mxGeometry relative="1" as="geometry" />
        </mxCell>
        <mxCell id="rXJdtnzMvX7g7QMT9Zs_-5" value="List items" style="shape=parallelogram;html=1;strokeWidth=2;perimeter=parallelogramPerimeter;whiteSpace=wrap;rounded=1;arcSize=12;size=0.23;fillColor=#d5e8d4;strokeColor=#82b366;" vertex="1" parent="1">
          <mxGeometry x="360" y="530" width="120" height="60" as="geometry" />
        </mxCell>
        <mxCell id="rXJdtnzMvX7g7QMT9Zs_-26" style="edgeStyle=orthogonalEdgeStyle;rounded=0;orthogonalLoop=1;jettySize=auto;html=1;entryX=0.5;entryY=0;entryDx=0;entryDy=0;" edge="1" parent="1" source="rXJdtnzMvX7g7QMT9Zs_-8" target="rXJdtnzMvX7g7QMT9Zs_-25">
          <mxGeometry relative="1" as="geometry" />
        </mxCell>
        <mxCell id="rXJdtnzMvX7g7QMT9Zs_-27" style="edgeStyle=orthogonalEdgeStyle;rounded=0;orthogonalLoop=1;jettySize=auto;html=1;entryX=0.5;entryY=0;entryDx=0;entryDy=0;" edge="1" parent="1" source="rXJdtnzMvX7g7QMT9Zs_-8" target="rXJdtnzMvX7g7QMT9Zs_-14">
          <mxGeometry relative="1" as="geometry" />
        </mxCell>
        <mxCell id="rXJdtnzMvX7g7QMT9Zs_-8" value="Have enough&amp;nbsp;&lt;div&gt;money&amp;nbsp;&lt;span style=&quot;background-color: transparent; color: light-dark(rgb(0, 0, 0), rgb(255, 255, 255));&quot;&gt;to buy the item?&lt;/span&gt;&lt;/div&gt;" style="strokeWidth=2;html=1;shape=mxgraph.flowchart.decision;whiteSpace=wrap;fillColor=#e1d5e7;strokeColor=#9673a6;" vertex="1" parent="1">
          <mxGeometry x="360" y="1000" width="120" height="80" as="geometry" />
        </mxCell>
        <mxCell id="rXJdtnzMvX7g7QMT9Zs_-18" value="" style="edgeStyle=orthogonalEdgeStyle;rounded=0;orthogonalLoop=1;jettySize=auto;html=1;" edge="1" parent="1" source="rXJdtnzMvX7g7QMT9Zs_-11" target="rXJdtnzMvX7g7QMT9Zs_-17">
          <mxGeometry relative="1" as="geometry" />
        </mxCell>
        <mxCell id="rXJdtnzMvX7g7QMT9Zs_-11" value="Add the item into profile" style="rounded=1;whiteSpace=wrap;html=1;absoluteArcSize=1;arcSize=14;strokeWidth=2;fillColor=#f8cecc;strokeColor=#b85450;" vertex="1" parent="1">
          <mxGeometry x="520" y="1210" width="120" height="60" as="geometry" />
        </mxCell>
        <mxCell id="rXJdtnzMvX7g7QMT9Zs_-16" value="" style="edgeStyle=orthogonalEdgeStyle;rounded=0;orthogonalLoop=1;jettySize=auto;html=1;" edge="1" parent="1" source="rXJdtnzMvX7g7QMT9Zs_-14" target="rXJdtnzMvX7g7QMT9Zs_-11">
          <mxGeometry relative="1" as="geometry" />
        </mxCell>
        <mxCell id="rXJdtnzMvX7g7QMT9Zs_-14" value="Reduce money" style="rounded=1;whiteSpace=wrap;html=1;absoluteArcSize=1;arcSize=14;strokeWidth=2;fillColor=#f8cecc;strokeColor=#b85450;" vertex="1" parent="1">
          <mxGeometry x="520" y="1090" width="120" height="60" as="geometry" />
        </mxCell>
        <mxCell id="rXJdtnzMvX7g7QMT9Zs_-17" value="Output the purchase&amp;nbsp;&lt;div&gt;success message&lt;/div&gt;" style="shape=parallelogram;html=1;strokeWidth=2;perimeter=parallelogramPerimeter;whiteSpace=wrap;rounded=1;arcSize=12;size=0.23;fillColor=#d5e8d4;strokeColor=#82b366;" vertex="1" parent="1">
          <mxGeometry x="500" y="1330" width="160" height="60" as="geometry" />
        </mxCell>
        <mxCell id="rXJdtnzMvX7g7QMT9Zs_-23" value="" style="edgeStyle=orthogonalEdgeStyle;rounded=0;orthogonalLoop=1;jettySize=auto;html=1;" edge="1" parent="1" source="rXJdtnzMvX7g7QMT9Zs_-21" target="rXJdtnzMvX7g7QMT9Zs_-8">
          <mxGeometry relative="1" as="geometry" />
        </mxCell>
        <mxCell id="rXJdtnzMvX7g7QMT9Zs_-21" value="Confirm to buy&amp;nbsp;&lt;div&gt;the item?&lt;/div&gt;" style="strokeWidth=2;html=1;shape=mxgraph.flowchart.decision;whiteSpace=wrap;fillColor=#e1d5e7;strokeColor=#9673a6;" vertex="1" parent="1">
          <mxGeometry x="360" y="840" width="120" height="80" as="geometry" />
        </mxCell>
        <mxCell id="rXJdtnzMvX7g7QMT9Zs_-25" value="Output the message&lt;div&gt;&amp;nbsp;that&amp;nbsp;&lt;span style=&quot;background-color: transparent; color: light-dark(rgb(0, 0, 0), rgb(255, 255, 255));&quot;&gt;the money is&lt;/span&gt;&lt;/div&gt;&lt;div&gt;&lt;span style=&quot;background-color: transparent; color: light-dark(rgb(0, 0, 0), rgb(255, 255, 255));&quot;&gt;&amp;nbsp;not enough&lt;/span&gt;&lt;/div&gt;" style="shape=parallelogram;html=1;strokeWidth=2;perimeter=parallelogramPerimeter;whiteSpace=wrap;rounded=1;arcSize=12;size=0.23;fillColor=#d5e8d4;strokeColor=#82b366;" vertex="1" parent="1">
          <mxGeometry x="150" y="1090" width="170" height="60" as="geometry" />
        </mxCell>
        <mxCell id="rXJdtnzMvX7g7QMT9Zs_-28" value="End" style="strokeWidth=2;html=1;shape=mxgraph.flowchart.start_1;whiteSpace=wrap;fillColor=#dae8fc;strokeColor=#6c8ebf;" vertex="1" parent="1">
          <mxGeometry x="370" y="1490" width="100" height="60" as="geometry" />
        </mxCell>
        <mxCell id="rXJdtnzMvX7g7QMT9Zs_-29" style="edgeStyle=orthogonalEdgeStyle;rounded=0;orthogonalLoop=1;jettySize=auto;html=1;entryX=0.5;entryY=0;entryDx=0;entryDy=0;entryPerimeter=0;" edge="1" parent="1" source="rXJdtnzMvX7g7QMT9Zs_-25" target="rXJdtnzMvX7g7QMT9Zs_-28">
          <mxGeometry relative="1" as="geometry">
            <Array as="points">
              <mxPoint x="235" y="1440" />
              <mxPoint x="420" y="1440" />
            </Array>
          </mxGeometry>
        </mxCell>
        <mxCell id="rXJdtnzMvX7g7QMT9Zs_-30" style="edgeStyle=orthogonalEdgeStyle;rounded=0;orthogonalLoop=1;jettySize=auto;html=1;entryX=0.5;entryY=0;entryDx=0;entryDy=0;entryPerimeter=0;" edge="1" parent="1" source="rXJdtnzMvX7g7QMT9Zs_-17" target="rXJdtnzMvX7g7QMT9Zs_-28">
          <mxGeometry relative="1" as="geometry">
            <Array as="points">
              <mxPoint x="580" y="1440" />
              <mxPoint x="420" y="1440" />
            </Array>
          </mxGeometry>
        </mxCell>
      </root>
    </mxGraphModel>
  </diagram>
</mxfile>
